<?xml version="1.0" encoding="UTF-8"?>
<svg id="Layer_1" data-name="Layer 1" xmlns="http://www.w3.org/2000/svg" viewBox="0 0 500 539.33">
  <defs>
    <style>
      .cls-1 {
        fill: #435931;
      }
    </style>
  </defs>
  <path class="cls-1" d="M60.98,247.34c1.58,1.58,4.39,1.58,5.96,0L249.93,64.21l183.13,183.13c.82.82,1.9,1.23,2.98,1.23s2.16-.41,2.98-1.23l27.09-27.09c.79-.79,1.23-1.86,1.23-2.98s-.44-2.19-1.23-2.98L252.9,1.23c-1.65-1.64-4.32-1.64-5.96,0L33.89,214.29c-.79.79-1.23,1.86-1.23,2.98s.44,2.19,1.23,2.98l27.09,27.09Z"/>
  <path class="cls-1" d="M169.45,481.84c-1.13-.95-2.91-1.44-5.27-1.44h-6.35v11.49h6.12c2.29,0,4.06-.46,5.32-1.39,1.26-.93,1.9-2.39,1.9-4.37s-.57-3.37-1.72-4.29Z"/>
  <path class="cls-1" d="M420.36,502.18c.75,1.05,1.67,1.88,2.78,2.44,1.11.59,2.34.87,3.73.87,1.88,0,3.45-.49,4.71-1.44,1.26-.93,2.21-2.31,2.85-4.17.64-1.83.98-4.06.98-6.71,0-2.83-.33-5.22-1-7.15-.67-1.93-1.65-3.39-2.96-4.4-1.29-1.03-2.9-1.52-4.81-1.52-1.8,0-3.32.49-4.6,1.44-1.29.98-2.26,2.39-2.93,4.27-.67,1.88-1,4.17-1,6.89,0,2.06.21,3.86.57,5.48.39,1.59.95,2.91,1.7,3.99Z"/>
  <path class="cls-1" d="M465.03,491.09l34.07-41.6c.98-1.21,1.18-2.88.51-4.29-.67-1.41-2.08-2.31-3.65-2.31H4.04c-1.57,0-2.98.9-3.65,2.31-.67,1.41-.46,3.09.51,4.29l34.07,41.6L.9,532.72c-.98,1.21-1.18,2.88-.51,4.29.67,1.41,2.08,2.31,3.65,2.31h491.92c1.57,0,2.98-.9,3.65-2.31.67-1.41.46-3.09-.51-4.29l-34.07-41.63ZM424.4,469.11h-6.48l2.75-8.87h8.38l-4.65,8.87ZM431.29,460.24h8.31l-4.71,8.87h-6.43l2.83-8.87ZM426.92,472.3c2.73,0,5.17.44,7.35,1.31,2.21.87,4.09,2.13,5.68,3.83,1.59,1.7,2.8,3.83,3.63,6.38.85,2.55,1.26,5.45,1.26,8.77s-.44,6.43-1.31,8.97c-.87,2.55-2.13,4.65-3.75,6.35-1.62,1.7-3.55,2.96-5.79,3.81-2.24.85-4.71,1.29-7.41,1.29s-5.17-.44-7.41-1.31c-2.21-.87-4.09-2.13-5.66-3.83-1.57-1.7-2.78-3.81-3.65-6.3-.85-2.52-1.29-5.43-1.29-8.74,0-4.63.8-8.49,2.39-11.49,1.57-3.01,3.75-5.27,6.53-6.76,2.75-1.52,5.89-2.26,9.41-2.26ZM366.83,481.12v-7.97h30.93v7.97h-10.88v31.06h-9.28v-31.06h-10.77ZM352.12,489.04v6.92h-17.48v8.46h20.34v7.77h-29.6v-39.03h29.49v7.66h-20.24v8.23h17.48ZM281.15,481.12v-7.97h30.93v7.97h-10.88v31.06h-9.28v-31.06h-10.77ZM246.72,473.15v39.03h-9.39v-39.03h9.39ZM193.11,481.12v-7.97h30.93v7.97h-10.88v31.06h-9.28v-31.06h-10.77ZM175.57,496.72c1.23.8,2.19,1.83,2.85,3.11.67,1.29,1.23,2.78,1.67,4.53l2.19,7.82h-10.26l-1.65-7.23c-.31-1.57-.77-2.8-1.36-3.65-.59-.82-1.34-1.44-2.24-1.8-.87-.33-2.06-.51-3.45-.51h-5.5v13.19h-9.23v-39.03h16.04c2.03,0,3.88.15,5.58.49,1.7.33,3.19.82,4.5,1.44,1.29.64,2.42,1.41,3.32,2.34.93.93,1.62,2.01,2.06,3.19.46,1.21.69,2.57.69,4.06,0,1.34-.21,2.57-.62,3.68-.44,1.11-1.08,2.06-1.93,2.88-.87.82-1.93,1.52-3.21,2.06-1.29.51-2.8.9-4.55,1.13v.85c2.19.18,3.88.69,5.09,1.47ZM131.19,489.04v6.92h-17.46v8.46h20.31v7.77h-29.6v-39.03h29.49v7.66h-20.21v8.23h17.46ZM70.82,487.01c1.57-1.29,2.96-2.7,4.14-4.24,1.21-1.52,2.24-3.11,3.06-4.76.8-1.62,1.41-3.27,1.8-4.86h10.59c-.46,1.88-1.21,3.75-2.21,5.63-1,1.88-2.24,3.68-3.65,5.37-1.44,1.72-3.01,3.27-4.68,4.6-1.67,1.34-3.39,2.39-5.14,3.19v.82c1.83-.03,3.42.15,4.81.57,1.36.41,2.57,1.05,3.6,1.9,1.03.85,1.93,1.88,2.7,3.09.75,1.23,1.41,2.67,2.01,4.32l3.19,9.54h-10.41l-2.19-7.87c-.41-1.7-1-3.03-1.77-4.04-.75-.98-1.75-1.7-2.98-2.16-1.21-.44-2.78-.67-4.68-.67h-3.32v14.73h-9.23v-39.03h9.23v17.02c1.85-.82,3.57-1.88,5.14-3.16Z"/>
  <path class="cls-1" d="M403.73,425.77c0,2.33,1.89,4.22,4.21,4.22h20.64c2.33,0,4.21-1.89,4.21-4.22v-120.75c.07-2.94,1.23-8.42,3.2-8.42h17.82c2.33,0,4.21-1.89,4.21-4.22v-20.62c0-2.33-1.89-4.22-4.21-4.22h-45.27c-13.77,0-25.13,12.12-28.8,20.73-2.14,5.02-.96,7.78.41,9.21,4.92,5.13,10.13,1.28,14.72-2.11l.28-.21c2.47-1.82,5.73-2.59,6.98-2.05.15.06.54.23.7,1.49.94,7.12.89,10.2.89,10.21,0,.02,0,.05,0,.07,0,.02,0,.03,0,.05v120.84ZM390.14,288.38l-.28.21c-.47.35-.98.72-1.48,1.08,3.1-5.34,10.99-13.69,20.15-13.69h41.06v12.19h-13.6c-7.14,0-10.22,6.7-11.23,12.55h-12.79c-.14-1.79-.37-4.16-.77-7.22-.52-3.89-2.56-6.79-5.77-8.15-4.9-2.09-11.21.01-15.29,3.02Z"/>
  <path class="cls-1" d="M41.74,426.45c2.11,1.88,5,2.55,7.75,1.8l27.15-7.45,3.46,5.43c1.5,2.37,4.11,3.79,6.98,3.79,4.53,0,8.22-3.59,8.22-8.01v-50.37s0-.03,0-.04v-101.35c0-2.33-1.89-4.22-4.21-4.22h-8.64s-.03,0-.04,0c-.19,0-.37.03-.56.06-.09.01-.19.01-.27.03-.13.03-.26.08-.4.12-.13.04-.27.07-.4.13-.08.03-.15.09-.23.13-.17.09-.34.17-.5.28-.01,0-.02.01-.03.02l-13.28,9.36c-1.61,1.14-2.22,3.24-1.47,5.06l4.86,11.73-10.35,7.35c-1.6,1.14-2.21,3.24-1.45,5.05l4.86,11.73-10.36,7.35c-1.6,1.14-2.21,3.24-1.45,5.05l4.86,11.73-10.35,7.35c-1.6,1.14-2.21,3.23-1.45,5.05l4.86,11.74-10.36,7.37c-1.6,1.14-2.21,3.23-1.45,5.05l5.83,14.08-4.14,27.52c-.4,2.64.56,5.29,2.58,7.09ZM56.9,370.28c1.6-1.14,2.21-3.23,1.45-5.05l-4.86-11.74,10.36-7.35c1.6-1.14,2.21-3.24,1.45-5.05l-4.86-11.73,10.36-7.35c1.6-1.14,2.21-3.24,1.45-5.05l-4.86-11.73,10.35-7.35c1.6-1.14,2.21-3.24,1.45-5.05l-4.86-11.71,9.43-6.64h3.1v94.44l-37.12,16.49-3.21-7.76,10.36-7.37Z"/>
  <path class="cls-1" d="M297.64,226.2c4.54-33.52-22-68.64-50.32-88.57-1.54-1.08-3.54-1.28-5.25-.51-1.72.76-2.92,2.38-3.15,4.24-.03.21-2.82,21.35-18.52,38.8-17.72,19.7-26.04,42.14-22.26,60.02,3.05,14.38,13.22,25.53,30.24,33.15,2.7,1.21,5.87,0,7.08-2.7,1.21-2.7,0-5.87-2.7-7.08-13.72-6.14-21.84-14.75-24.14-25.58-3.08-14.54,4.3-33.47,19.74-50.64,11.53-12.82,16.93-27.1,19.35-35.99,26.46,21.18,42.4,50.5,39.29,73.43-1.95,14.42-10.96,25.97-26.8,34.48l.02-.02c-6.18,3.64-9.96,1.6-11.36-3.15-.6-3.51-.98-6.96-1.14-10.38,6.25-1.76,16.57-6.48,20.9-18.8.98-2.79-.48-5.85-3.28-6.83-2.79-.98-5.85.48-6.83,3.28-2.15,6.12-6.77,9.31-10.62,10.97.91-11.72,3.95-23.53,8.41-36.71.95-2.8-.55-5.84-3.36-6.79-2.8-.94-5.84.55-6.79,3.36-2.65,7.83-4.82,15.29-6.42,22.61-1.49-2.03-3.02-4.54-4.25-7.57-1.11-2.74-4.24-4.07-6.98-2.95-2.74,1.11-4.06,4.24-2.95,6.98,3.62,8.91,9.24,14.59,11.95,16.96-.37,3.46-.56,6.91-.59,10.38-.06.42-.09.84-.06,1.28,0,.05.02.1.03.15.09,16,4.06,32.44,13.67,51.59l5.41,10.78c.94,1.87,2.83,2.96,4.79,2.96.81,0,1.63-.18,2.4-.57,2.65-1.33,3.72-4.55,2.39-7.19l-5.41-10.78c-2.59-5.16-4.69-10.07-6.43-14.83,32.52-12.77,41.91-32.88,43.92-47.76Z"/>
  <path class="cls-1" d="M251.69,306.96c-8.72-17.12-27.47-28.07-55.73-32.53-30.62-4.83-43.03-23.42-43.53-24.18-1.1-1.72-3.08-2.69-5.12-2.44-2.03.23-3.76,1.59-4.45,3.52-13,36.32-15.23,86.78,9.07,117.62,12.72,16.14,31.33,24.5,54.26,24.5,3.57,0,7.24-.2,11.01-.61,2.94-.32,5.07-2.96,4.75-5.9-.32-2.94-2.98-5.07-5.9-4.75-24.49,2.64-43.23-4.04-55.7-19.87-19.74-25.05-19.29-66.7-10.25-98.45,7.51,7.32,21.66,17.6,44.19,21.16,24.68,3.9,40.78,12.92,47.85,26.81,6.31,12.39,5.47,28.98-2.41,49.46l.12-.36c-2.53,5.81-6.06,3.73-9.54-.37-2.4-3.67-4.98-7.3-7.7-10.87-.19-.31-.41-.6-.67-.87-3.89-5.04-8.05-9.96-12.41-14.7-.94-2.85-3.63-12.38.04-19.24,1.39-2.61.41-5.86-2.2-7.25-2.61-1.4-5.85-.41-7.25,2.2-2.02,3.77-2.85,7.84-3.05,11.72-7.36-6.91-14.99-13.23-22.54-18.74-2.39-1.75-5.74-1.22-7.49,1.17s-1.22,5.74,1.17,7.49c11.01,8.04,22.21,17.85,32.35,28.65.2.26.43.48.66.7.52.56,1.03,1.13,1.55,1.69-7.61-.68-14.4-.1-15.7.03-2.94.29-5.09,2.91-4.8,5.86.29,2.95,2.94,5.12,5.86,4.81,7.35-.72,20.83-.41,26.4,3.37,12.98,17.09,22.29,35.47,23.87,52.61.25,2.78,2.59,4.87,5.33,4.87.16,0,.33,0,.5-.02,2.95-.27,5.12-2.88,4.84-5.83-.78-8.52-3.26-17.28-7-26.02,15.9-31.22,19.14-56.53,9.62-75.23Z"/>
  <path class="cls-1" d="M253.23,385.9c1.03.44,6.29,2.65,8.49,3.32,10.89,3.33,20.91,4.99,30.04,4.99,16.08,0,29.39-5.15,39.76-15.43,27.38-27.14,26.38-84.07,13.25-128.44-.6-2.02-2.33-3.49-4.42-3.78-2.07-.29-4.15.69-5.27,2.47-.12.19-12.26,19.05-42.56,26.56-8.88,2.2-15.01,3.51-21.86,7.13-2.62,1.38-3.62,4.62-2.23,7.24,1.38,2.61,4.62,3.62,7.24,2.24,6.08-3.21,11.41-4.22,19.44-6.21,21.28-5.28,34.69-15.48,42.02-22.82,9.32,38.58,9.03,86-13.15,107.99-12.4,12.29-30.64,15.37-54.27,9.18-.03,0-.07-.02-.1-.03-.36-.1-.74-.22-1.11-.32-5.02-1.59-5.7-4.08-4.61-7.58.72-1.79,1.5-3.53,2.32-5.23,1.37.08,2.71.12,4.02.12,16.84,0,28.38-5.84,28.93-6.12,2.62-1.35,3.65-4.57,2.31-7.2s-4.57-3.67-7.2-2.34c-.1.06-8.98,4.44-22.02,4.89,10-15.17,24.38-27.59,42.69-42.43,2.3-1.86,2.65-5.24.79-7.54-1.86-2.3-5.24-2.65-7.54-.79-9.88,8-19.52,15.84-28.19,24.54-.87-3.17-1.87-6.77-2.83-10.16-.81-2.85-3.77-4.5-6.62-3.7-2.85.81-4.5,3.77-3.7,6.62,1.73,6.09,3.59,12.89,4.59,16.57-4.84,5.77-9.19,12.02-12.89,18.96-.19.29-.36.6-.49.93-3.16,6.08-5.86,12.66-7.91,19.97-.73,2.6.59,5.33,3.07,6.38Z"/>
</svg>